<svg xmlns="http://www.w3.org/2000/svg" width="75.548" height="27.525" viewBox="0 0 75.548 27.525">
  <g id="Gruppe_9" data-name="Gruppe 9" transform="translate(-167.726 -540.988)">
    <g id="Gruppe_7" data-name="Gruppe 7" transform="translate(-262.872 280.817)">
      <path id="Pfad_8" data-name="Pfad 8" d="M16.656,10.291q-.762,0-2.373-.107-1.553-.107-2.373-.1.039,1.113.264,3.965.205,2.52.205,3.984,0,.332.068.986t.068.986a2.757,2.757,0,0,1-.312,1.318,1.246,1.246,0,0,1-1.143.752,1.436,1.436,0,0,1-.947-.342,1.193,1.193,0,0,1-.459-.957,2.654,2.654,0,0,1,.049-.415,2.667,2.667,0,0,0,.049-.425q0-.449-.063-1.357t-.063-1.367q0-1.309-.205-3.545-.234-2.568-.273-3.545H8.639a15.175,15.175,0,0,1-3.457-.312A1.234,1.234,0,0,1,4.1,8.533a1.327,1.327,0,0,1,.352-.9,1.219,1.219,0,0,1,1.074-.43q.342.02,1.553.166a14.8,14.8,0,0,0,1.563.107q.6,0,1.782-.02t1.782-.02q.742,0,2.227.1t2.227.1a1.36,1.36,0,0,1,.981.381,1.25,1.25,0,0,1,.4.938,1.266,1.266,0,0,1-.4.942A1.35,1.35,0,0,1,16.656,10.291ZM23.34,22.537a2.831,2.831,0,0,1-1.426-.869,12.909,12.909,0,0,1-1.582.649,3.915,3.915,0,0,1-1.162.22,4.6,4.6,0,0,1-3.53-1.26,5.344,5.344,0,0,1-1.177-3.77A5.394,5.394,0,0,1,16.2,13.479a5.785,5.785,0,0,1,4.16-1.675,5.586,5.586,0,0,1,2.148.522q1.475.629,1.475,1.46a.905.905,0,0,1-.225.609,6.492,6.492,0,0,0-.151.972q-.054.585-.054,1.368a9.5,9.5,0,0,0,.264,2.659q.029.087.449,1.006a5.1,5.1,0,0,1,.381.948,1.073,1.073,0,0,1-.4.851A1.363,1.363,0,0,1,23.34,22.537Zm-2.422-6.592a6.745,6.745,0,0,1,.044-.718q.044-.405.132-.9a2.108,2.108,0,0,0-.347-.142.953.953,0,0,0-.259-.044,3.122,3.122,0,0,0-2.324,1.04,3.376,3.376,0,0,0-1,2.407,3.4,3.4,0,0,0,.469,1.968,1.612,1.612,0,0,0,1.406.659,3.285,3.285,0,0,0,1.147-.2,3.56,3.56,0,0,0,1.021-.591A30.556,30.556,0,0,1,20.918,15.945ZM32.9,14.852a1.043,1.043,0,0,1-1.162-.811,4.637,4.637,0,0,0-.8-.068q-2.354,0-2.354.645,0,.381,1.416,1.025a17.441,17.441,0,0,1,2.617,1.387,2.882,2.882,0,0,1,1.416,2.314,2.764,2.764,0,0,1-1.562,2.549,6.345,6.345,0,0,1-3.1.693,6.748,6.748,0,0,1-2.373-.4q-1.465-.547-1.465-1.611,0-.977,1.162-.977a4.509,4.509,0,0,1,1.3.283,4.516,4.516,0,0,0,1.309.283q1.982,0,1.992-.8,0-.5-1.377-1.1a19.663,19.663,0,0,1-2.578-1.279,2.821,2.821,0,0,1-1.377-2.354,2.635,2.635,0,0,1,2.08-2.646,12.761,12.761,0,0,1,3.711-.4,3.153,3.153,0,0,1,1.445.254,1.3,1.3,0,0,1,.645,1.26Q33.848,14.852,32.9,14.852ZM43.975,22.4a1.268,1.268,0,0,1-1.172-.742,15.036,15.036,0,0,0-1.436-2.1q-1.484-1.885-1.572-2-.781.576-1.289.879-.1,1.357-.1,2.6a1.254,1.254,0,0,1-.381.938,1.328,1.328,0,0,1-.967.371q-1.377,0-1.377-1.641,0-.771.112-2.31t.112-2.31q0-1.416.044-3.237T36,9.627q0-.42-.044-.991t-.044-.991a1.238,1.238,0,0,1,.381-.933,1.459,1.459,0,0,1,1.934,0,1.238,1.238,0,0,1,.381.933q0,.43.049,1.016T38.7,9.676q0,1.162-.059,2.754-.059,1.523-.049,2.715a49.51,49.51,0,0,0,4.043-3.73,1.346,1.346,0,0,1,.977-.43,1.36,1.36,0,0,1,.967.4,1.246,1.246,0,0,1,.42.928,1.289,1.289,0,0,1-.381.869,32.916,32.916,0,0,1-2.744,2.7l2.031,2.617a6.445,6.445,0,0,1,1.475,2.617,1.17,1.17,0,0,1-.43.913A1.442,1.442,0,0,1,43.975,22.4Zm4.814-12.139a1.553,1.553,0,0,1-1.084-.42,1.375,1.375,0,0,1,0-2.051,1.553,1.553,0,0,1,1.084-.42,1.536,1.536,0,0,1,1.079.42,1.385,1.385,0,0,1,0,2.051A1.536,1.536,0,0,1,48.789,10.262Zm.83,7.158q0,.557.034,1.787t.034,1.787a1.238,1.238,0,0,1-.381.933,1.459,1.459,0,0,1-1.934,0,1.238,1.238,0,0,1-.381-.933q0-.557-.034-1.787t-.034-1.787q0-.869.1-2.178t.1-2.178a1.238,1.238,0,0,1,.381-.933,1.459,1.459,0,0,1,1.934,0,1.238,1.238,0,0,1,.381.933q0,.869-.1,2.178T49.619,17.42Zm7.188-5.449q1.309-.117,1.875-.117,1.826,0,1.826,1.25,0,1.289-1.943,1.23a17.47,17.47,0,0,0-1.865.088q-.039,1.035-.02,2.637.039,2.3.039,2.627a14.086,14.086,0,0,1-.225,2.832,1.2,1.2,0,0,1-1.289,1.045,1.407,1.407,0,0,1-.952-.352,1.126,1.126,0,0,1-.405-.889,1.484,1.484,0,0,1,.02-.244,15.911,15.911,0,0,0,.234-2.627V14.568q-.176.01-.645.078a4.7,4.7,0,0,1-.566.049,1.431,1.431,0,0,1-.986-.347,1.184,1.184,0,0,1-.391-.933,1.168,1.168,0,0,1,.957-1.191,8.2,8.2,0,0,1,1.709-.166q.01-.176.127-1.1a6.128,6.128,0,0,1,1.182-3.242,4.32,4.32,0,0,1,3.477-1.328q1.787,0,1.787,1.279t-1.66,1.27a1.9,1.9,0,0,0-1.719.83,4.486,4.486,0,0,0-.537,1.924Z" transform="translate(427 255.026)" fill="#89a9de" stroke="#89a9de" stroke-width="1"/>
      <path id="Pfad_7" data-name="Pfad 7" d="M17.786,2.56c-.551,1.148-1.924,2.616-5.85,9.3C11,13.45,7.44,20.246,7.295,20.807c-.111.226-2.107,5.81-2.448,6.189-.268.375-1.473.089-1.473-.446-.043-.4.107-4.407,0-6.033C3.009,18.355,2.357,17.511.8,14.764q-.234-.371-.479-.752a1.65,1.65,0,0,1-.264-.82,1.246,1.246,0,0,1,.42-.928,1.36,1.36,0,0,1,.967-.4,1.189,1.189,0,0,1,1.006.479A37.468,37.468,0,0,1,5.684,17.9c.7-1.543,4.209-7.043,4.359-7.362.462-.97,4.908-8.442,5.351-9.177a1.288,1.288,0,0,1,1.152-.7,1.453,1.453,0,0,1,.977.371,1.156,1.156,0,0,1,.43.908A1.448,1.448,0,0,1,17.786,2.56Z" transform="translate(487.693 260.015)" fill="#79e9a2" stroke="#79e9a2" stroke-width="1"/>
    </g>
  </g>
</svg>
